<svg xmlns="http://www.w3.org/2000/svg" width="48" height="48" viewBox="0 0 48 48" fill="none">
  <defs>
    <!-- 방향별 파스텔: 상승=붉은톤, 꺾임=보라, 하락=파란톤 (좌→우 x 위치로 매핑) -->
    <linearGradient id="trend" x1="4" y1="0" x2="45" y2="0" gradientUnits="userSpaceOnUse">
      <stop offset="0" stop-color="#f2a7b1"/>
      <stop offset=".34" stop-color="#b095f0"/>
      <stop offset=".5" stop-color="#a4c4f2"/>
      <stop offset=".65" stop-color="#b095f0"/>
      <stop offset="1" stop-color="#f2a7b1"/>
    </linearGradient>
    <!-- 세로 페이드: 위는 진하게, 아래로 옅게 -->
    <linearGradient id="fade" x1="0" y1="6" x2="0" y2="46" gradientUnits="userSpaceOnUse">
      <stop offset="0" stop-color="#fff"/>
      <stop offset=".45" stop-color="#fff"/>
      <stop offset="1" stop-color="#4a4a4a"/>
    </linearGradient>
    <mask id="fadeMask">
      <rect width="48" height="48" fill="url(#fade)"/>
    </mask>
  </defs>
  <g mask="url(#fadeMask)">
    <!-- 영역의 좌/우 끝을 라인 둥근 캡의 바깥 끝(라인 끝점 ± 선두께/2 = 2.25)까지 확장 →
         둥근 캡이 곧 영역 끝의 둥근 마무리가 되어 딱 맞아떨어짐 -->
    <path d="M1.75 45 L1.75 38 L4 38 C8 37 13 24 18 23 C22 22 25 30 30 30 C36 30 40 12 45 7 L47.25 7 L47.25 45 Z"
          fill="url(#trend)"/>
    <!-- 차트 라인 (끊김 없는 단일 path, 둥근 캡) -->
    <path d="M4 38 C8 37 13 24 18 23 C22 22 25 30 30 30 C36 30 40 12 45 7"
          fill="none" stroke="url(#trend)" stroke-width="4.5" stroke-linecap="round" stroke-linejoin="round"/>
  </g>
</svg>
