<svg xmlns="http://www.w3.org/2000/svg" width="48" height="48" viewBox="0 0 48 48" fill="none">
  <!-- AI 스파크 — 붉은 상승 추세선 + AI 스파클(✦). 딥네이비 라운드 배경. -->
  <defs>
    <linearGradient id="bg" x1="0" y1="0" x2="48" y2="48" gradientUnits="userSpaceOnUse">
      <stop offset="0" stop-color="#141d31"/>
      <stop offset="1" stop-color="#0a0b10"/>
    </linearGradient>
    <linearGradient id="line" x1="8" y1="36" x2="36" y2="14" gradientUnits="userSpaceOnUse">
      <stop offset="0" stop-color="#d84158"/>
      <stop offset="1" stop-color="#ff8095"/>
    </linearGradient>
  </defs>
  <rect width="48" height="48" rx="10.8" fill="url(#bg)"/>
  <path d="M8 35 L16 26.5 L23 30.5 L33 19" fill="none" stroke="url(#line)" stroke-width="4.6" stroke-linecap="round" stroke-linejoin="round"/>
  <path d="M36.5 7.5 C37.3 11.2 38.3 12.2 42 13 C38.3 13.8 37.3 14.8 36.5 18.5 C35.7 14.8 34.7 13.8 31 13 C34.7 12.2 35.7 11.2 36.5 7.5 Z" fill="#ffffff"/>
  <path d="M42.4 17.8 C42.8 19.6 43.3 20.1 45.1 20.5 C43.3 20.9 42.8 21.4 42.4 23.2 C42 21.4 41.5 20.9 39.7 20.5 C41.5 20.1 42 19.6 42.4 17.8 Z" fill="#9dc2ff"/>
</svg>
